<?xml version="1.0" standalone="no"?>
<!DOCTYPE svg PUBLIC "-//W3C//DTD SVG 20010904//EN"
 "http://www.w3.org/TR/2001/REC-SVG-20010904/DTD/svg10.dtd">
<svg version="1.0" xmlns="http://www.w3.org/2000/svg"
 width="225.000000pt" height="225.000000pt" viewBox="0 0 225.000000 225.000000"
 preserveAspectRatio="xMidYMid meet">

<g transform="translate(0.000000,225.000000) scale(0.100000,-0.100000)"
fill="#000000" stroke="none">
<path d="M880 2093 c-345 -36 -649 -256 -792 -571 -57 -126 -80 -240 -80 -397
0 -157 23 -271 80 -397 127 -279 383 -487 685 -555 95 -21 307 -21 402 -1 377
84 668 375 753 753 25 111 21 318 -7 430 -21 83 -81 228 -117 283 l-15 23 -67
-57 c-37 -32 -71 -61 -75 -64 -4 -4 10 -45 32 -91 178 -372 12 -838 -363
-1019 -644 -312 -1329 336 -1054 997 117 282 405 473 713 473 178 0 366 -67
493 -176 l36 -30 77 53 c42 29 82 53 88 53 13 0 -54 62 -123 114 -171 130
-443 203 -666 179z"/>
<path d="M1419 1623 c-13 -16 -12 -17 4 -4 16 13 21 21 13 21 -2 0 -10 -8 -17
-17z"/>
<path d="M1305 1518 l-50 -53 53 50 c48 46 57 55 49 55 -1 0 -25 -24 -52 -52z"/>
<path d="M1550 1453 l-55 -58 58 55 c53 50 62 60 54 60 -1 0 -27 -26 -57 -57z"/>
<path d="M1179 1383 c-13 -16 -12 -17 4 -4 9 7 17 15 17 17 0 8 -8 3 -21 -13z"/>
<path d="M860 1348 c24 -27 45 -48 47 -48 8 0 0 9 -44 50 l-48 45 45 -47z"/>
<path d="M1429 1323 c-13 -16 -12 -17 4 -4 9 7 17 15 17 17 0 8 -8 3 -21 -13z"/>
<path d="M535 1240 c10 -11 20 -20 23 -20 3 0 -3 9 -13 20 -10 11 -20 20 -23
20 -3 0 3 -9 13 -20z"/>
<path d="M730 1066 c0 -2 8 -10 18 -17 15 -13 16 -12 3 4 -13 16 -21 21 -21
13z"/>
</g>
</svg>
